<svg width="72" height="72" viewBox="0 0 72 72" fill="none" xmlns="http://www.w3.org/2000/svg">
<rect width="72" height="72" rx="36" fill="#FF7F00" fill-opacity="0.1"/>
<g clip-path="url(#clip0_44_260)">
<path d="M46.9001 22.8667L37.6667 19.4333C36.5377 19.0831 35.3291 19.0831 34.2001 19.4333L25.1001 22.8667C24.192 23.2631 23.4127 23.9054 22.8502 24.7212C22.2878 25.5369 21.9644 26.4936 21.9167 27.4833V41C21.958 41.7577 22.1538 42.4989 22.492 43.1782C22.8302 43.8575 23.3037 44.4604 23.8834 44.95L33.0501 51.8C33.922 52.3868 34.9491 52.7003 36.0001 52.7003C37.0511 52.7003 38.0782 52.3868 38.9501 51.8L48.1167 44.95C48.6965 44.4604 49.17 43.8575 49.5082 43.1782C49.8464 42.4989 50.0421 41.7577 50.0834 41V27.4833C50.0357 26.4936 49.7124 25.5369 49.1499 24.7212C48.5874 23.9054 47.8082 23.2631 46.9001 22.8667ZM41.8001 32.2L34.6501 39.3333C34.4113 39.5587 34.0951 39.684 33.7667 39.6833C33.438 39.6857 33.1213 39.5602 32.8834 39.3333L30.2001 36.6667C30.0822 36.5518 29.9884 36.4144 29.9244 36.2627C29.8604 36.111 29.8275 35.948 29.8275 35.7833C29.8275 35.6187 29.8604 35.4557 29.9244 35.304C29.9884 35.1523 30.0822 35.0149 30.2001 34.9C30.4345 34.6659 30.7522 34.5344 31.0834 34.5344C31.4147 34.5344 31.7324 34.6659 31.9667 34.9L33.7667 36.7L40.0334 30.4333C40.2704 30.2125 40.5838 30.0923 40.9076 30.0981C41.2315 30.1038 41.5404 30.235 41.7695 30.464C41.9985 30.693 42.1297 31.002 42.1354 31.3258C42.1411 31.6496 42.0209 31.9631 41.8001 32.2Z" fill="#FF7F00"/>
</g>
<defs>
<clipPath id="clip0_44_260">
<rect width="40" height="40" fill="white" transform="translate(16 16)"/>
</clipPath>
</defs>
</svg>
