<svg width="72" height="72" viewBox="0 0 72 72" fill="none" xmlns="http://www.w3.org/2000/svg">
<rect width="72" height="72" rx="36" fill="#FF7F00" fill-opacity="0.1"/>
<g clip-path="url(#clip0_44_250)">
<path d="M45.9099 21H39.9099C38.7164 21 37.5718 21.4741 36.7279 22.318C35.884 23.1619 35.4099 24.3065 35.4099 25.5V25.875H42.9099C43.2083 25.875 43.4944 25.9935 43.7054 26.2045C43.9164 26.4155 44.0349 26.7016 44.0349 27C44.0349 27.2984 43.9164 27.5845 43.7054 27.7955C43.4944 28.0065 43.2083 28.125 42.9099 28.125H35.4099V31.875H39.6249C39.9233 31.875 40.2094 31.9935 40.4204 32.2045C40.6314 32.4155 40.7499 32.7016 40.7499 33C40.7499 33.2984 40.6314 33.5845 40.4204 33.7955C40.2094 34.0065 39.9233 34.125 39.6249 34.125H35.4099V37.8L42.9099 37.875C43.2083 37.875 43.4944 37.9935 43.7054 38.2045C43.9164 38.4155 44.0349 38.7016 44.0349 39C44.0349 39.2984 43.9164 39.5845 43.7054 39.7955C43.4944 40.0065 43.2083 40.125 42.9099 40.125L35.4099 40.05V43.875H41.2599C41.5583 43.875 41.8444 43.9935 42.0554 44.2045C42.2664 44.4155 42.3849 44.7016 42.3849 45C42.3849 45.2984 42.2664 45.5845 42.0554 45.7955C41.8444 46.0065 41.5583 46.125 41.2599 46.125H35.4099V46.5C35.4099 47.6935 35.884 48.8381 36.7279 49.682C37.5718 50.5259 38.7164 51 39.9099 51H45.9099C47.1034 51 48.248 50.5259 49.0919 49.682C49.9358 48.8381 50.4099 47.6935 50.4099 46.5V25.5C50.4099 24.3065 49.9358 23.1619 49.0919 22.318C48.248 21.4741 47.1034 21 45.9099 21Z" fill="#FF7F00"/>
<path d="M30.865 25.5V27.45H22V25.5C22.1827 24.4571 22.7273 23.5119 23.538 22.8309C24.3488 22.1498 25.3737 21.7765 26.4325 21.7765C27.4913 21.7765 28.5162 22.1498 29.327 22.8309C30.1377 23.5119 30.6823 24.4571 30.865 25.5Z" fill="#FF7F00"/>
<path d="M22 44.865C22.0497 45.6703 22.2914 46.4521 22.705 47.145L23.92 49.185C25.345 51.555 27.655 51.555 29.065 49.185L30.205 47.145C30.5862 46.443 30.8017 45.6631 30.835 44.865V29.625H22V44.865Z" fill="#FF7F00"/>
</g>
<defs>
<clipPath id="clip0_44_250">
<rect width="40" height="40" fill="white" transform="translate(16 16)"/>
</clipPath>
</defs>
</svg>
