<svg width="20" height="20" viewBox="0 0 20 20" fill="none" xmlns="http://www.w3.org/2000/svg">
<path d="M10 0C8.02219 0 6.08879 0.58649 4.4443 1.6853C2.79981 2.78412 1.51809 4.3459 0.761209 6.17317C0.00433284 8.00043 -0.193701 10.0111 0.192152 11.9509C0.578004 13.8907 1.53041 15.6725 2.92894 17.0711C4.32746 18.4696 6.10929 19.422 8.0491 19.8079C9.98891 20.1937 11.9996 19.9957 13.8268 19.2388C15.6541 18.4819 17.2159 17.2002 18.3147 15.5557C19.4135 13.9112 20 11.9778 20 10C20 7.34784 18.9464 4.8043 17.0711 2.92893C15.1957 1.05357 12.6522 0 10 0V0ZM14.78 7.7L9.11 13.36C8.96938 13.5005 8.77876 13.5793 8.58 13.5793C8.38125 13.5793 8.19063 13.5005 8.05 13.36L5.22 10.53C5.08752 10.3878 5.0154 10.1998 5.01883 10.0055C5.02226 9.81118 5.10097 9.62579 5.23838 9.48838C5.3758 9.35097 5.56118 9.27225 5.75548 9.26882C5.94978 9.2654 6.13783 9.33752 6.28 9.47L8.58 11.77L13.72 6.64C13.789 6.56924 13.8714 6.51301 13.9624 6.47461C14.0534 6.43621 14.1512 6.41643 14.25 6.41643C14.3488 6.41643 14.4466 6.43621 14.5376 6.47461C14.6286 6.51301 14.7111 6.56924 14.78 6.64C14.9205 6.78063 14.9993 6.97125 14.9993 7.17C14.9993 7.36875 14.9205 7.55937 14.78 7.7Z" fill="#FF7F00"/>
</svg>
