<svg width="72" height="72" viewBox="0 0 72 72" fill="none" xmlns="http://www.w3.org/2000/svg">
<rect width="72" height="72" rx="36" fill="#FF7F00" fill-opacity="0.1"/>
<g clip-path="url(#clip0_44_267)">
<path d="M51.9334 33.9L49.6667 31.2667C49.1948 30.6645 48.9211 29.9308 48.8834 29.1667V26.3333C48.8834 25.9109 48.8002 25.4926 48.6385 25.1024C48.4769 24.7121 48.2399 24.3575 47.9412 24.0588C47.6425 23.7601 47.2879 23.5232 46.8977 23.3615C46.5074 23.1999 46.0891 23.1167 45.6667 23.1167H42.8334C42.0729 23.0745 41.3421 22.8076 40.7334 22.35L38.1 20.0833C37.5075 19.6058 36.7694 19.3454 36.0084 19.3454C35.2473 19.3454 34.5092 19.6058 33.9167 20.0833L31.2834 22.35C30.6746 22.8076 29.9438 23.0745 29.1834 23.1167H26.3C25.4454 23.1167 24.6255 23.455 24.0196 24.0578C23.4137 24.6606 23.0711 25.4787 23.0667 26.3333V29.1833C23.0311 29.9372 22.7698 30.6631 22.3167 31.2667L20.0667 33.9167C19.5934 34.5079 19.3354 35.2427 19.3354 36C19.3354 36.7574 19.5934 37.4921 20.0667 38.0833L22.3167 40.7333C22.7698 41.337 23.0311 42.0628 23.0667 42.8167V45.6667C23.0711 46.5213 23.4137 47.3395 24.0196 47.9422C24.6255 48.545 25.4454 48.8834 26.3 48.8833H29.1834C29.9438 48.9256 30.6746 49.1924 31.2834 49.65L33.9167 51.9167C34.5092 52.3942 35.2473 52.6546 36.0084 52.6546C36.7694 52.6546 37.5075 52.3942 38.1 51.9167L40.7334 49.65C41.3421 49.1924 42.0729 48.9256 42.8334 48.8833H45.6667C46.5198 48.8833 47.338 48.5444 47.9412 47.9412C48.5445 47.338 48.8834 46.5198 48.8834 45.6667V42.8333C48.9211 42.0692 49.1948 41.3355 49.6667 40.7333L51.9334 38.1C52.4151 37.5062 52.678 36.7647 52.678 36C52.678 35.2353 52.4151 34.4939 51.9334 33.9ZM43.8 36L41.85 41.9167C41.6905 42.4234 41.3766 42.8677 40.9523 43.1874C40.528 43.5071 40.0145 43.6863 39.4834 43.7H36.3834C35.7852 43.7222 35.1974 43.54 34.7167 43.1833L32.3334 41.2833C32.3334 42.35 31.8 42.8 30.6667 42.8H29.8167C28.5834 42.8 28.15 42.3333 28.15 41.1333V33.2C28.15 32.0333 28.65 31.5333 29.8167 31.5333H30.6167C31.85 31.5333 32.2834 32.0167 32.2834 33.2V33.8L35.5667 29C35.7752 28.657 36.1004 28.4007 36.4827 28.2783C36.865 28.1559 37.2786 28.1755 37.6475 28.3337C38.0165 28.4918 38.3159 28.7777 38.4909 29.139C38.6659 29.5002 38.7047 29.9125 38.6 30.3L38.2 32.8833C38.1782 32.992 38.1819 33.1043 38.2109 33.2113C38.2398 33.3183 38.2931 33.4171 38.3667 33.5C38.4335 33.5763 38.5154 33.6379 38.6072 33.6809C38.699 33.7239 38.7987 33.7475 38.9 33.75H42.15C42.4367 33.7289 42.7239 33.7823 42.9838 33.9049C43.2437 34.0276 43.4675 34.2153 43.6334 34.45C43.7854 34.6752 43.88 34.9342 43.9091 35.2043C43.9381 35.4745 43.9007 35.7476 43.8 36Z" fill="#FF7F00"/>
</g>
<defs>
<clipPath id="clip0_44_267">
<rect width="40" height="40" fill="white" transform="translate(16 16)"/>
</clipPath>
</defs>
</svg>
