<svg width="1166" height="200" viewBox="0 0 1166 200" fill="none" xmlns="http://www.w3.org/2000/svg">
    <path d="M-99.1442 -70.013L-15.5649 77.4181C31.4931 160.418 134.784 192.81 220.807 151.545L397.408 66.8443C535.298 0.710872 700.84 53.3842 775.144 187.047L853.706 328.354C885.319 385.206 951.439 413.396 1014.34 396.835L1121.26 368.686" stroke="white" stroke-opacity="0.1" stroke-width="4"/>
    <path d="M-107.198 -44.756L-23.6189 102.675C23.4391 185.675 126.73 218.067 212.753 176.802L389.354 92.1013C527.244 25.9678 692.786 78.6412 767.09 212.304L845.652 353.611C877.265 410.462 943.385 438.653 1006.29 422.092L1113.21 393.943" stroke="white" stroke-opacity="0.1" stroke-width="4"/>
    <path d="M-115.249 -19.5087L-31.6699 127.922C15.3881 210.922 118.679 243.315 204.702 202.049L381.303 117.349C519.193 51.2151 684.735 103.889 759.039 237.551L837.601 378.858C869.214 435.71 935.334 463.901 998.239 447.339L1105.15 419.191" stroke="white" stroke-opacity="0.1" stroke-width="4"/>
    <path d="M-123.303 5.74824L-39.724 153.179C7.33399 236.179 110.625 268.572 196.648 227.306L373.249 142.606C511.139 76.4721 676.681 129.145 750.985 262.808L829.547 404.115C861.159 460.967 927.28 489.158 990.185 472.596L1097.1 444.448" stroke="white" stroke-opacity="0.1" stroke-width="4"/>
    <path d="M-131.354 30.9957L-47.775 178.427C-0.717039 261.427 102.574 293.819 188.597 252.553L365.198 167.853C503.088 101.72 668.63 154.393 742.934 288.055L821.496 429.363C853.108 486.214 919.229 514.405 982.134 497.843L1089.05 469.695" stroke="white" stroke-opacity="0.1" stroke-width="4"/>
    <path d="M-139.408 56.2526L-55.829 203.684C-8.77106 286.684 94.5202 319.076 180.543 277.81L357.144 193.11C495.034 126.976 660.576 179.65 734.88 313.312L813.442 454.62C845.054 511.471 911.175 539.662 974.08 523.1L1081 494.952" stroke="white" stroke-opacity="0.1" stroke-width="4"/>
</svg>
