<svg width="200" height="200" viewBox="0 0 200 200" fill="none" xmlns="http://www.w3.org/2000/svg">
    <path d="M100 0C44.8 0 0 44.8 0 100C0 155.2 44.8 200 100 200C155.2 200 200 155.2 200 100C200 44.8 155.2 0 100 0ZM100 192C49.4 192 8 150.8 8 100C8 49.4 49.4 8 100 8C150.6 8 192 49.2 192 100C192 150.8 150.6 192 100 192Z" fill="#FF7F00"/>
    <path d="M161 100.8C160.6 101.2 148.2 114.6 142.6 120.8C142.4 120.8 142.2 120.6 142 120.6C138.6 119.6 134.8 118.8 130.8 117.8C130.4 117.8 130 117.6 129.8 117.6C127.8 117.2 125.8 116.6 123.8 116.2C123.4 116.2 123.2 116 122.8 116C120.8 115.6 119 115 117 114.6C116.8 114.6 116.6 114.6 116.6 114.4C109 112.6 101.4 110.8 93.9999 109L97.3999 101.2H97.5999H97.7999C98.1999 101.2 98.3999 101.2 98.5999 101.2C98.5999 101.2 98.5999 101 98.7999 101C98.9999 100.8 98.9999 100.6 98.7999 100.4V100.2C98.5999 100.2 98.3999 100 98.1999 100H97.9999H97.7999L101 92.4001H101.2H101.4C101.8 92.4001 102 92.4001 102.2 92.4001C102.2 92.4001 102.2 92.4001 102.4 92.2001C102.6 92.0001 102.6 91.8001 102.4 91.6001V91.4001C102.2 91.4001 102 91.2001 101.8 91.2001H101.6C101.6 91.2001 101.6 91.2001 101.4 91.2001L104 85.2001L104.8 83.6001H105H105.2C105.6 83.6001 105.8 83.6001 106.2 83.6001C106.2 83.6001 106.2 83.6001 106.4 83.4001C106.6 83.2001 106.6 83.0001 106.6 82.8001V82.6001C106.4 82.6001 106.2 82.4001 106 82.4001H105.8L109 74.8001H109.2H109.4C109.8 74.8001 110 74.8001 110.4 74.8001C110.4 74.8001 110.4 74.8001 110.6 74.6001C110.8 74.4001 110.8 74.2001 110.8 74.0001V73.8001C110.6 73.8001 110.4 73.6001 110.2 73.6001C110 73.6001 110 73.6001 109.8 73.6001L113.2 65.8001C113.2 65.8001 111.8 65.0001 110.8 65.2001C110.8 65.2001 110.6 65.2001 110.6 65.4001C110.6 65.4001 110.6 65.4001 110.4 65.4001L110.2 65.6001C110.2 65.6001 110.2 65.6001 110 65.8001C109.8 66.0001 109.6 66.0001 109.6 66.2001C109.6 66.2001 109.6 66.2001 109.4 66.4001C109 66.8001 108.4 67.4001 107.6 68.0001L107.4 68.2001C107 68.6001 106.8 68.8001 106.4 69.2001C106.2 69.4001 106.2 69.4001 106 69.6001C101 74.2001 92.9999 82.0001 85.5999 89.2001C84.7999 89.0001 83.5999 88.8001 82.3999 88.8001C81.5999 88.8001 80.5999 88.6001 79.7999 88.8001V89.0001C79.7999 89.0001 79.7999 89.2001 79.5999 89.2001C79.5999 89.4001 79.3999 89.4001 79.3999 89.6001C78.9999 90.4001 78.5999 91.6001 78.5999 93.0001C78.5999 93.2001 78.5999 93.4001 78.5999 93.6001V93.8001V94.0001C78.5999 94.4001 78.5999 94.8001 78.7999 95.4001C78.7999 95.4001 78.9999 95.4001 79.1999 95.6001C77.3999 97.4001 75.5999 99.0001 73.9999 100.6C73.7999 100.8 73.5999 101 73.3999 101.2C72.3999 102.2 71.3999 103.2 70.5999 104C68.9999 103.6 67.3999 103.4 65.9999 103C62.5999 102.2 59.7999 101.6 57.3999 101.2C57.1999 101.2 56.9999 101.2 56.5999 101C56.1999 101 55.9999 100.8 55.5999 100.8C55.3999 100.8 55.1999 100.8 54.9999 100.6C54.7999 100.6 54.3999 100.4 54.1999 100.4C53.9999 100.4 53.7999 100.4 53.5999 100.2C53.1999 100.2 52.7999 100 52.5999 100C40.9999 97.8001 30.9999 99.6001 30.1999 103.8C29.3999 108 38.1999 113.2 49.7999 115.4C49.9999 115.4 50.3999 115.6 50.7999 115.6C50.9999 115.6 51.1999 115.6 51.3999 115.8C51.5999 115.8 51.7999 115.8 51.9999 115.8C52.1999 115.8 52.5999 116 52.9999 116C53.1999 116 53.3999 116 53.5999 116.2C54.5999 116.4 55.9999 116.6 57.3999 116.8C57.9999 116.8 58.5999 117 59.1999 117C59.3999 117 59.3999 117 59.5999 117C60.7999 117.2 62.1999 117.4 63.5999 117.6C65.1999 117.8 66.5999 118 68.3999 118.4C68.7999 119.4 69.3999 120.6 69.9999 121.8C70.9999 124 72.1999 126.4 73.3999 129C73.1999 129 72.9999 129 72.9999 129C72.7999 129.4 72.5999 129.8 72.3999 130.2V130.4V130.6C72.3999 130.8 72.1999 131 72.1999 131.2C71.7999 132.6 71.7999 133.8 71.7999 134.6C71.7999 134.8 71.7999 135 71.7999 135.2V135.4C71.7999 135.6 71.7999 135.6 71.7999 135.6C72.5999 136 73.3999 136.2 74.3999 136.6C75.5999 137 76.5999 137.2 77.5999 137.2C79.7999 142 82.1999 146.8 84.1999 151.4C84.1999 151.6 84.3999 151.8 84.5999 152C84.7999 152.6 85.1999 153.2 85.3999 153.8C85.5999 154.4 85.7999 154.8 86.1999 155.2C86.1999 155.4 86.3999 155.6 86.5999 155.8C86.7999 156.2 86.9999 156.8 87.1999 157.2C87.1999 157.4 87.3999 157.6 87.3999 157.8C87.7999 158.4 87.9999 159 88.1999 159.6C88.7999 160.6 89.1999 161.6 89.5999 162.6C89.5999 162.8 89.7999 163 89.7999 163C89.7999 163 89.7999 163 89.7999 163.2C89.9999 163.6 90.1999 164.2 90.3999 164.6C90.3999 164.6 90.3999 164.6 90.3999 164.8C90.7999 165.6 91.1999 166.4 91.5999 167C91.7999 167.2 91.7999 167.4 91.9999 167.6V167.8C91.9999 168 92.1999 168 92.1999 168.2C92.1999 168.4 92.3999 168.4 92.3999 168.4C92.9999 168.8 93.9999 168.8 94.5999 168.8C94.7999 168.8 94.7999 168.8 94.7999 168.8L94.3999 160.4C94.3999 160.4 94.5999 160.4 94.7999 160.4C94.9999 160.4 95.1999 160.4 95.3999 160.4C95.3999 160.4 95.3999 160.4 95.5999 160.2C95.5999 160 95.7999 159.8 95.5999 159.6C95.5999 159.6 95.5999 159.6 95.5999 159.4C95.3999 159.2 94.9999 159.2 94.7999 159C94.7999 159 94.7999 159 94.5999 159C94.5999 159 94.3999 159 94.1999 159L93.7999 150.6H93.9999C94.1999 150.6 94.3999 150.6 94.5999 150.6C94.5999 150.6 94.7999 150.6 94.7999 150.4C94.9999 150.2 94.9999 150 94.9999 149.8V149.6C94.7999 149.4 94.3999 149.4 94.1999 149.2C94.1999 149.2 94.1999 149.2 93.9999 149.2C93.7999 149.2 93.7999 149.2 93.7999 149.2L93.5999 143.6L93.3999 141C93.5999 141 93.5999 141 93.7999 141C93.9999 141 94.1999 141 94.3999 141C94.3999 141 94.5999 141 94.5999 140.8C94.7999 140.6 94.7999 140.4 94.7999 140.2V140C94.5999 139.8 94.1999 139.8 93.9999 139.6H93.7999L93.3999 131.4C93.5999 131.4 93.5999 131.4 93.7999 131.4C93.9999 131.4 94.1999 131.4 94.3999 131.4C94.3999 131.4 94.5999 131.4 94.5999 131.2C94.7999 131 94.7999 130.8 94.7999 130.6V130.4C94.5999 130.2 94.1999 130.2 93.9999 130C93.9999 130 93.9999 130 93.7999 130C93.7999 130 93.5999 130 93.3999 130L92.9999 121.6C100.8 122.6 108.8 123.8 116.6 124.8C116.8 124.8 117.2 124.8 117.4 124.8C119.2 125 121 125.2 122.8 125.6C123.2 125.6 123.4 125.6 123.8 125.8C125.6 126 127.6 126.2 129.4 126.4C130 126.4 130.6 126.6 131.2 126.6C133 126.8 134.8 127 136.6 127.2C136.8 127.2 137 127.2 137.2 127.2C139 127.4 140.6 127.6 142.2 127.8C142.4 127.8 142.6 127.8 142.6 127.8C142.8 128.6 143.2 129.2 143.6 130.2C143.6 130.4 143.8 130.4 143.8 130.6C145.6 135.4 148.2 141.8 150 146.6C150 146.8 150.2 147 150.2 147.2C150.4 147.6 150.6 148 150.6 148.4C150.6 148.6 150.8 148.8 150.8 149C151.2 149.8 151.4 150.6 151.8 151.4V151.6C152 152 152 152.2 152.2 152.4C152.4 152.6 152.4 152.8 152.4 153C152.4 153.2 152.4 153.2 152.6 153.2C152.8 153.6 155.2 154.4 156.8 154.8C157.6 155 158 155.2 158 155.2V148.8L157.8 129.4V129.2C158 129.2 158.2 129.2 158.4 129.2C158.8 129.2 159 129.2 159.2 129.2C159.8 129.2 160.6 129.2 161 129.2C161.2 128.6 161.4 128.2 161.4 127.6C161.6 127 161.6 126.6 161.6 126C161.2 125.8 161 125.8 160.6 125.6C160.4 125.6 160.2 125.4 160 125.4C160 125.4 160 125.4 159.8 125.4C159.6 125.4 159.4 125.2 159.2 125.2C159.2 125.2 159.2 125.2 159 125.2C158.8 125.2 158.6 125 158.2 125L165.4 106.8L167.8 101C166.6 100.8 161.6 100.4 161 100.8Z" fill="#FF7F00"/>
    <path d="M35.1998 79.4001C35.3998 79.8001 35.5998 80 35.9998 80.2C36.5998 80.6 37.1998 80.6 37.7998 80.6C38.5998 80.4 38.9998 80.2 39.3998 79.6C39.7998 79 39.9998 78.4001 39.7998 77.8001C39.5998 77.2001 39.1998 76.4 38.3998 75.2L36.3998 72.2L42.9998 63.4001L46.3998 64.4001C46.7998 64.6001 47.3998 64.6001 47.9998 64.8001C48.5998 65.0001 48.9998 65 49.3998 65C49.7998 65 49.9998 65.0001 50.3998 64.8001C50.7998 64.6001 50.9998 64.4 51.1998 64C51.5998 63.4 51.7998 62.8 51.7998 62C51.7998 61.2 51.3998 60.8001 50.9998 60.4001C50.5998 60.0001 49.5998 59.6001 48.1998 59.4001L30.3998 54.6C29.5998 54.4 28.7998 54.2 28.1998 54C27.5998 53.8 27.1998 53.8 26.5998 53.8C25.9998 53.8 25.5998 53.8001 24.9998 54.2001C24.3998 54.4001 23.9998 54.8001 23.5998 55.4001C23.1998 56.0001 22.7998 56.6001 22.7998 57.2001C22.7998 57.8001 22.7998 58.4 22.9998 58.8C23.1998 59.4 23.3998 60 23.7998 60.6C24.1998 61.2 24.5998 61.8001 24.7998 62.2001L34.1998 78C34.7998 78.6 34.9998 79.0001 35.1998 79.4001ZM39.1998 62L34.3998 68.4001L28.1998 58.6L39.1998 62Z" fill="#FF7F00"/>
    <path d="M52.7999 57.7999C53.3999 58.7999 53.9999 59.1999 54.5999 59.5999C55.1999 59.7999 55.9999 59.7999 56.7999 59.1999C57.3999 58.7999 57.9999 58.1999 57.9999 57.5999C58.1999 56.7999 57.9999 55.9999 57.3999 55.1999L52.9999 47.9999L54.5999 46.9999C55.3999 46.3999 56.1999 46.1999 56.7999 45.9999C57.3999 45.7999 58.1999 45.9999 59.1999 46.1999C59.9999 46.3999 61.1999 46.9999 62.5999 47.5999L66.3999 49.5999C67.1999 49.9999 67.9999 50.3999 68.3999 50.5999C68.7999 50.7999 69.3999 50.9999 69.7999 50.9999C70.3999 50.9999 70.7999 50.7999 71.3999 50.5999C71.7999 50.3999 72.1999 49.9999 72.3999 49.5999C72.5999 49.1999 72.7999 48.7999 72.7999 48.3999C72.7999 47.9999 72.7999 47.5999 72.5999 47.3999C72.3999 47.1999 71.9999 46.5999 71.1999 46.1999C70.3999 45.5999 69.3999 44.9999 68.1999 44.3999C66.9999 43.7999 65.7999 43.3999 64.5999 42.9999C63.3999 42.5999 62.1999 42.3999 60.9999 42.5999C62.7999 40.9999 63.7999 39.3999 63.9999 37.7999C64.3999 36.1999 63.9999 34.5999 62.9999 32.7999C62.5999 31.9999 61.7999 31.1999 61.1999 30.7999C60.3999 30.1999 59.5999 29.7999 58.7999 29.5999C57.9999 29.3999 56.9999 29.3999 56.1999 29.3999C55.3999 29.3999 54.5999 29.7999 53.7999 29.9999C52.9999 30.3999 51.9999 30.7999 50.9999 31.3999L43.3999 35.9999C42.3999 36.5999 41.7999 37.1999 41.5999 37.9999C41.3999 38.7999 41.5999 39.5999 42.1999 40.5999L52.7999 57.7999ZM51.5999 35.5999C53.1999 34.5999 54.3999 33.9999 54.9999 33.9999C55.7999 33.7999 56.3999 33.9999 56.9999 34.1999C57.5999 34.3999 58.1999 34.9999 58.3999 35.5999C58.7999 36.3999 58.9999 37.1999 58.9999 37.7999C58.7999 38.3999 58.3999 39.1999 57.7999 39.7999C57.1999 40.3999 56.1999 41.1999 55.1999 41.7999L50.9999 44.3999L47.1999 38.1999L51.5999 35.5999Z" fill="#FF7F00"/>
    <path d="M76.3999 47.6C76.9999 48 77.5999 48.2 78.5999 48.2C79.3999 48 79.9999 47.8 80.3999 47.2C80.7999 46.6 80.9999 45.8 80.7999 44.6L79.7999 36.2L81.5999 36C82.5999 35.8 83.3999 35.8 83.9999 36C84.5999 36.2 85.3999 36.6 85.9999 37.2C86.5999 37.8 87.5999 38.6 88.3999 39.8L90.9999 43C91.5999 43.8 92.1999 44.4 92.3999 44.8C92.7999 45.2 93.1999 45.4 93.5999 45.8C93.9999 46 94.5999 46.2 95.1999 46C95.7999 46 96.1999 45.8 96.5999 45.6C96.9999 45.4 97.1999 45 97.3999 44.6C97.5999 44.2 97.5999 43.8 97.5999 43.6C97.5999 43.2 97.1999 42.6 96.7999 41.8C96.3999 41 95.5999 40 94.7999 39C93.9999 38 92.9999 37 91.9999 36.2C90.9999 35.4 89.9999 34.8 88.9999 34.4C91.1999 33.6 92.7999 32.6 93.7999 31.2C94.7999 29.8 95.1999 28.2 94.7999 26.4C94.5999 25.4 94.3999 24.6 93.9999 23.8C93.5999 22.9999 92.9999 22.4 92.1999 21.7999C91.3999 21.1999 90.5999 20.8 89.7999 20.6C88.9999 20.4 88.1999 20.2 87.3999 20.2C86.5999 20.2 85.3999 20.2 84.1999 20.4L75.3999 21.6C74.1999 21.8 73.3999 22.2 72.9999 22.6C72.5999 23.2 72.3999 24 72.5999 25.2L75.1999 45.4C75.3999 46.4 75.7999 47.2 76.3999 47.6ZM83.1999 24.6C84.9999 24.4 86.3999 24.4 86.9999 24.6C87.7999 24.8 88.1999 25.2 88.7999 25.6C89.1999 26.2 89.5999 26.8 89.5999 27.4C89.7999 28.4 89.5999 29 89.1999 29.6C88.7999 30.2 88.1999 30.6 87.3999 31C86.5999 31.4 85.3999 31.6 84.1999 31.8L79.3999 32.4L78.3999 25.2L83.1999 24.6Z" fill="#FF7F00"/>
    <path d="M104.2 47.0001C105 47.0001 105.8 46.8001 106.2 46.4001C106.8 46.0001 107 45.2001 107.2 44.0001L109.2 23.4C109.4 22.4 109.2 21.4 108.6 20.8C108.2 20.2 107.6 19.8 106.8 19.8C106 19.8 105.4 20 104.8 20.4C104.2 20.8 104 21.6 103.8 22.8L101.8 43.4001C101.6 44.4001 101.8 45.4001 102.4 46.0001C102.8 46.6001 103.4 46.8001 104.2 47.0001Z" fill="#FF7F00"/>
    <path d="M119.2 49.6C119.6 50 120.2 50.4 120.8 50.6C121.4 50.8 122.2 51 122.6 50.8C123.2 50.8 123.6 50.6 124.2 50.2C124.6 49.8 125 49.4 125.6 49C126 48.6 126.4 48 127 47.4L139.2 33.6C139.4 33.4 139.6 33.2 139.8 32.8C140 32.6 140.2 32.4 140.4 32C140.6 31.8 140.8 31.4 140.8 31.2C141 30.8 141 30.4 140.8 30C140.8 29.6 140.6 29.2 140.2 28.8C140 28.4 139.6 28.2 139.2 28C138.6 27.8 138 27.8 137.6 27.8C137.2 28 136.8 28.2 136.6 28.4C136.4 28.6 135.8 29.2 135.2 30L123.2 44.6L123.8 25.8C123.8 24.6 123.8 23.6 123.6 22.8C123.4 22.2 123 21.6 122 21.4C121.2 21.2 120.6 21.2 120 21.4C119.4 21.6 119 22.2 118.8 22.8C118.8 23 118.6 23.4 118.6 23.6C118.6 24 118.6 24.2 118.6 24.6C118.6 25 118.6 25.2 118.6 25.6V43.8C118.6 44.4 118.6 45.2 118.6 45.8C118.6 46.4 118.6 47 118.8 47.6C118.6 48.6 118.8 49.2 119.2 49.6Z" fill="#FF7F00"/>
    <path d="M132.8 51.2C132.4 51.4 132.2 51.6 132 52C131.6 52.4 131.4 53 131.4 53.8C131.4 54.6 131.8 55.2 132.2 55.6C132.8 56.2 133.4 56.4 134 56.2C134.6 56 135.4 55.8 136.8 55L140 53.4L148 60.8L146.8 64.2C146.6 64.6 146.4 65.2 146.2 65.6C146 66.2 146 66.6 146 67C146 67.4 146 67.6 146.2 68C146.4 68.4 146.6 68.6 146.8 69C147.4 69.4 148 69.8001 148.8 69.8001C149.6 69.8001 150 69.6 150.6 69C151 68.6 151.4 67.6 152 66.4L158.4 49C158.8 48.2 159 47.4 159.2 47C159.4 46.4 159.6 46 159.6 45.4C159.6 44.8 159.6 44.4 159.4 43.8C159.2 43.2 158.8 42.8 158.2 42.2C157.6 41.6 157 41.4 156.6 41.2C156 41 155.4 41 155 41.2C154.4 41.4 153.8 41.6 153.2 41.8C152.6 42.2 152 42.4 151.4 42.6L134.8 50.6C133.6 50.8 133.2 51 132.8 51.2ZM154 46.2L149.6 57L143.6 51.6L154 46.2Z" fill="#FF7F00"/>
    <path d="M174.4 61.9999C174 61.1999 173.4 60.7999 172.8 60.5999C172 60.3999 171.2 60.5999 170.4 61.1999L152.6 70.7999C151.6 71.3999 151 71.9999 150.8 72.5999C150.6 73.3999 150.8 74.1999 151.4 75.1999L157.6 86.7999C158 87.5999 158.6 87.9999 159.2 88.3999C159.8 88.5999 160.4 88.5999 161 88.1999C161.6 87.7999 162 87.3999 162 86.7999C162.2 86.1999 162 85.3999 161.6 84.7999L156 74.9999L172.8 65.7999C173.8 65.1999 174.4 64.5999 174.6 63.9999C175 63.3999 174.8 62.5999 174.4 61.9999Z" fill="#FF7F00"/>
</svg>
