<svg width="80" height="80" viewBox="0 0 80 80" fill="none" xmlns="http://www.w3.org/2000/svg">
<rect width="80" height="80" rx="40" fill="#FF7F00" fill-opacity="0.1"/>
<g clip-path="url(#clip0_95_564)">
<path d="M54.3667 34.0833C53.6319 30.8482 51.7989 27.9677 49.1796 25.9318C46.5603 23.8959 43.3164 22.8304 40.0001 22.9167C36.6867 22.8328 33.4463 23.897 30.828 25.9292C28.2096 27.9613 26.3744 30.8362 25.6334 34.0667C23.6667 42.6667 28.9334 50 33.7001 54.5333C35.3865 56.1745 37.6469 57.0928 40.0001 57.0928C42.3533 57.0928 44.6136 56.1745 46.3001 54.5333C51.0501 50 56.3167 42.6833 54.3667 34.0833ZM40.0001 42.4167C38.9617 42.4167 37.9467 42.1088 37.0833 41.5319C36.22 40.955 35.5471 40.1351 35.1497 39.1757C34.7523 38.2164 34.6484 37.1608 34.8509 36.1424C35.0535 35.124 35.5535 34.1886 36.2878 33.4543C37.022 32.7201 37.9574 32.2201 38.9758 32.0175C39.9942 31.815 41.0498 31.9189 42.0092 32.3163C42.9685 32.7137 43.7884 33.3866 44.3653 34.2499C44.9422 35.1133 45.2501 36.1283 45.2501 37.1667C45.2501 38.5606 44.6975 39.8977 43.7134 40.8849C42.7293 41.8721 41.394 42.4289 40.0001 42.4333V42.4167Z" fill="#FF7F00"/>
</g>
<defs>
<clipPath id="clip0_95_564">
<rect width="40" height="40" fill="white" transform="translate(20 20)"/>
</clipPath>
</defs>
</svg>
