<svg width="29" height="48" viewBox="0 0 29 48" fill="none" xmlns="http://www.w3.org/2000/svg">
    <circle cx="14.2701" cy="40.2162" r="6.53378" stroke="#FF7F00" stroke-width="2.5"/>
    <circle cx="14.2699" cy="40.2162" r="2.59459" fill="#FF7F00"/>
    <path d="M27.5405 14.2703C27.5405 15.96 26.7668 17.8861 25.4581 20.0221C24.1588 22.1428 22.4158 24.3411 20.6254 26.573C20.5327 26.6885 20.4399 26.8042 20.347 26.9199C18.6644 29.016 16.959 31.1407 15.6577 33.174C15.1325 33.9947 14.6565 34.8248 14.2703 35.6548C13.884 34.8248 13.4081 33.9947 12.8828 33.174C11.5815 31.1407 9.87609 29.016 8.19357 26.9199C8.10068 26.8042 8.00785 26.6885 7.91517 26.573C6.12478 24.3411 4.3817 22.1428 3.08242 20.0221C1.77377 17.8861 1 15.96 1 14.2703C1 6.9413 6.9413 1 14.2703 1C21.5992 1 27.5405 6.9413 27.5405 14.2703Z" fill="#FFECD0" stroke="#FF7F00" stroke-width="2"/>
    <circle cx="14.2702" cy="12.9729" r="5.18919" fill="#FF7F00"/>
</svg>
