<svg width="52" height="60" viewBox="0 0 52 60" fill="none" xmlns="http://www.w3.org/2000/svg">
    <path d="M26.0002 33.8133C30.5952 33.8133 34.3202 30.0884 34.3202 25.4933C34.3202 20.8983 30.5952 17.1733 26.0002 17.1733C21.4052 17.1733 17.6802 20.8983 17.6802 25.4933C17.6802 30.0884 21.4052 33.8133 26.0002 33.8133Z"
          stroke="white" stroke-width="5"/>
    <path d="M3.65321 20.64C8.98654 -2.45338 43.1199 -2.42671 48.3465 20.64C51.4132 34.1866 43.0132 45.6533 35.5999 52.7733C33.0197 55.2646 29.5731 56.6569 25.9865 56.6569C22.3999 56.6569 18.9534 55.2646 16.3732 52.7733C9.01321 45.68 0.586542 34.1866 3.65321 20.64Z"
          stroke="white" stroke-width="5"/>
</svg>
