<svg width="72" height="72" viewBox="0 0 72 72" fill="none" xmlns="http://www.w3.org/2000/svg">
<rect width="72" height="72" rx="36" fill="white"/>
<g clip-path="url(#clip0_121_266)">
<path d="M34.8667 21H24.4834C21.1501 21 19.4834 22.6667 19.4834 26V52.6667H28.5001V46.4167C28.5001 46.0851 28.6318 45.7672 28.8662 45.5328C29.1006 45.2984 29.4185 45.1667 29.7501 45.1667C30.0816 45.1667 30.3995 45.2984 30.6339 45.5328C30.8684 45.7672 31.0001 46.0851 31.0001 46.4167V52.6667H39.8334V26C39.8334 22.6667 38.1778 21 34.8667 21ZM33.9167 37.25H25.6667C25.3352 37.25 25.0173 37.1183 24.7828 36.8839C24.5484 36.6495 24.4167 36.3315 24.4167 36C24.4167 35.6685 24.5484 35.3505 24.7828 35.1161C25.0173 34.8817 25.3352 34.75 25.6667 34.75H34.0001C34.3316 34.75 34.6495 34.8817 34.8839 35.1161C35.1184 35.3505 35.2501 35.6685 35.2501 36C35.2501 36.3315 35.1184 36.6495 34.8839 36.8839C34.6495 37.1183 34.3316 37.25 34.0001 37.25H33.9167ZM33.9167 31H25.6667C25.3352 31 25.0173 30.8683 24.7828 30.6339C24.5484 30.3995 24.4167 30.0815 24.4167 29.75C24.4167 29.4185 24.5484 29.1005 24.7828 28.8661C25.0173 28.6317 25.3352 28.5 25.6667 28.5H34.0001C34.3316 28.5 34.6495 28.6317 34.8839 28.8661C35.1184 29.1005 35.2501 29.4185 35.2501 29.75C35.2501 30.0815 35.1184 30.3995 34.8839 30.6339C34.6495 30.8683 34.3316 31 34.0001 31H33.9167Z" fill="#FF7F00"/>
<path d="M54.3337 51.4167H50.5503V46.4167C51.3451 46.1606 52.0387 45.6603 52.5325 44.9869C53.0263 44.3136 53.295 43.5017 53.3003 42.6667V39.3334C53.3003 38.2813 52.8824 37.2724 52.1385 36.5285C51.3946 35.7846 50.3857 35.3667 49.3337 35.3667C48.2816 35.3667 47.2727 35.7846 46.5288 36.5285C45.7849 37.2724 45.367 38.2813 45.367 39.3334V42.6667C45.3712 43.4906 45.6318 44.2927 46.1126 44.9618C46.5935 45.6308 47.2707 46.1335 48.0503 46.4V51.4H17.667C17.3355 51.4 17.0175 51.5317 16.7831 51.7661C16.5487 52.0006 16.417 52.3185 16.417 52.65C16.417 52.9816 16.5487 53.2995 16.7831 53.5339C17.0175 53.7683 17.3355 53.9 17.667 53.9H54.3337C54.6652 53.9 54.9831 53.7683 55.2175 53.5339C55.452 53.2995 55.5837 52.9816 55.5837 52.65C55.5837 52.3185 55.452 52.0006 55.2175 51.7661C54.9831 51.5317 54.6652 51.4 54.3337 51.4V51.4167Z" fill="#FF7F00"/>
</g>
<defs>
<clipPath id="clip0_121_266">
<rect width="40" height="40" fill="white" transform="translate(16 16)"/>
</clipPath>
</defs>
</svg>
