<svg width="58" height="36" viewBox="0 0 58 36" fill="none" xmlns="http://www.w3.org/2000/svg">
<path d="M17.9236 0.399902C18.434 0.414081 18.8807 0.754359 19.0295 1.24351L20.1425 4.56831C20.1953 4.72896 20.2114 4.89937 20.1898 5.06707C20.1682 5.23477 20.1094 5.39552 20.0176 5.53755C19.9259 5.67958 19.8036 5.7993 19.6596 5.88796C19.5156 5.97661 19.3536 6.03196 19.1855 6.04994C14.6768 6.54618 10.7565 9.36058 8.83535 13.4723H9.43793C11.99 13.4723 14.5421 13.7488 17.0375 14.2875C18.4184 14.5923 19.6694 15.3214 20.6152 16.3728C21.561 17.4241 22.1542 18.7449 22.3118 20.1502L22.3543 20.93C22.3614 23.95 22.1346 26.9558 21.6667 29.9333C21.4198 31.4825 20.6501 32.9006 19.4855 33.9517C18.3209 35.0028 16.8316 35.6236 15.2652 35.7109C13.9395 35.8456 12.6068 35.8456 11.2811 35.8456H7.64437C6.09571 35.7558 4.62229 35.1476 3.46116 34.1189C2.30003 33.0902 1.51871 31.7008 1.24288 30.1743C0.550502 26.5215 0.201612 22.8118 0.200776 19.094C0.162808 14.2906 1.98798 9.65938 5.29285 6.17341C8.59771 2.68744 13.125 0.618012 17.9236 0.399902ZM53.3693 0.399902C53.8797 0.414081 54.3264 0.754359 54.4752 1.24351L55.5882 4.56831C55.641 4.72896 55.6571 4.89937 55.6355 5.06707C55.6139 5.23477 55.5551 5.39552 55.4633 5.53755C55.3716 5.67958 55.2493 5.7993 55.1053 5.88796C54.9613 5.97661 54.7993 6.03196 54.6312 6.04994C50.1225 6.54618 46.2022 9.36058 44.281 13.4723H44.8836C47.4357 13.4723 49.9878 13.7488 52.4832 14.2875C53.8641 14.5923 55.1151 15.3214 56.0609 16.3728C57.0067 17.4241 57.5999 18.7449 57.7575 20.1502L57.8 20.93C57.8071 23.95 57.5803 26.9558 57.1124 29.9333C56.8655 31.4825 56.0958 32.9006 54.9312 33.9517C53.7666 35.0028 52.2773 35.6236 50.7109 35.7109C49.3852 35.8456 48.0525 35.8456 46.7268 35.8456H43.0901C41.5414 35.7558 40.068 35.1476 38.9069 34.1189C37.7457 33.0902 36.9644 31.7008 36.6886 30.1743C35.9962 26.5215 35.6473 22.8118 35.6465 19.094C35.6085 14.2906 37.4337 9.65938 40.7385 6.17341C44.0434 2.68744 48.5707 0.618012 53.3693 0.399902Z" fill="#FF7F00"/>
</svg>
