<svg width="20" height="21" viewBox="0 0 20 21" fill="none" xmlns="http://www.w3.org/2000/svg">
<path d="M20.0001 16.83C19.9985 17.2074 19.9131 17.5797 19.7501 17.92C19.5737 18.2849 19.3446 18.6219 19.0701 18.92C18.6197 19.4323 18.059 19.8358 17.4301 20.1C16.8121 20.3558 16.149 20.4851 15.4801 20.48C14.3553 20.4593 13.2463 20.211 12.2201 19.75C11.0014 19.2158 9.8473 18.5449 8.78011 17.75C7.61822 16.9001 6.5218 15.9641 5.50011 14.95C4.48887 13.932 3.5562 12.8389 2.71011 11.68C1.91911 10.621 1.24832 9.4773 0.710113 8.27001C0.262254 7.25087 0.0209336 6.15303 0.000113419 5.04001C-0.00426104 4.37959 0.117942 3.72445 0.360113 3.11001C0.61446 2.47474 1.00734 1.90421 1.51011 1.44001C1.77629 1.15213 2.09753 0.920605 2.45481 0.75914C2.8121 0.597675 3.19815 0.50956 3.59011 0.500014C3.87015 0.498938 4.14689 0.560435 4.40011 0.680014C4.67022 0.802272 4.90187 0.995887 5.07011 1.24001L7.39011 4.50001C7.55058 4.71676 7.68485 4.95173 7.79011 5.20001C7.87699 5.39198 7.92459 5.59938 7.93011 5.81001C7.92349 6.05472 7.85094 6.29311 7.72011 6.50001C7.56589 6.76056 7.37756 6.99934 7.16011 7.21001L6.40011 8.00001C6.34742 8.05214 6.30602 8.11455 6.2785 8.18337C6.25097 8.25218 6.2379 8.32593 6.24011 8.40001C6.23039 8.47637 6.23039 8.55366 6.24011 8.63001L6.32011 8.83001C6.58865 9.28532 6.90006 9.71393 7.25011 10.11C7.70011 10.63 8.18011 11.11 8.70011 11.69C9.22011 12.27 9.76011 12.69 10.2901 13.16C10.6872 13.5104 11.1195 13.8187 11.5801 14.08L11.7601 14.16C11.8428 14.1752 11.9275 14.1752 12.0101 14.16C12.0865 14.1617 12.1624 14.1475 12.233 14.1182C12.3036 14.0889 12.3673 14.0453 12.4201 13.99L13.1801 13.24C13.3909 13.0185 13.6336 12.8298 13.9001 12.68C14.1121 12.5442 14.3583 12.4714 14.6101 12.47C14.82 12.4729 15.0273 12.5171 15.2201 12.6C15.4663 12.7054 15.7009 12.8361 15.9201 12.99L19.2301 15.34C19.4702 15.4972 19.6609 15.719 19.7801 15.98C19.914 16.2441 19.989 16.5341 20.0001 16.83Z" fill="#FF7F00"/>
</svg>
