<svg width="72" height="72" viewBox="0 0 72 72" fill="none" xmlns="http://www.w3.org/2000/svg">
<rect width="72" height="72" rx="36" fill="white"/>
<g clip-path="url(#clip0_121_255)">
<path d="M44.3335 21.8334H27.6668C22.6668 21.8334 19.3335 24.3334 19.3335 30.1667V41.8334C19.3335 47.6667 22.6668 50.1667 27.6668 50.1667H44.3335C49.3335 50.1667 52.6668 47.6667 52.6668 41.8334V30.1667C52.6668 24.3334 49.3335 21.8334 44.3335 21.8334ZM45.1168 31.9834L39.9002 36.15C38.775 36.9939 37.4066 37.45 36.0002 37.45C34.5938 37.45 33.2253 36.9939 32.1002 36.15L26.8835 31.9834C26.6285 31.7717 26.4653 31.4696 26.428 31.1403C26.3907 30.811 26.4823 30.48 26.6835 30.2167C26.8927 29.9581 27.1953 29.7921 27.5258 29.7547C27.8564 29.7172 28.1884 29.8114 28.4502 30.0167L33.6502 34.2C34.3363 34.6889 35.1577 34.9516 36.0002 34.9516C36.8426 34.9516 37.6641 34.6889 38.3502 34.2L43.5502 30.0167C43.811 29.809 44.1436 29.7133 44.4749 29.7508C44.8062 29.7883 45.1091 29.9559 45.3168 30.2167C45.5246 30.4775 45.6202 30.8101 45.5827 31.1415C45.5452 31.4728 45.3776 31.7756 45.1168 31.9834Z" fill="#FF7F00"/>
</g>
<defs>
<clipPath id="clip0_121_255">
<rect width="40" height="40" fill="white" transform="translate(16 16)"/>
</clipPath>
</defs>
</svg>
