<svg width="80" height="80" viewBox="0 0 80 80" fill="none" xmlns="http://www.w3.org/2000/svg">
<rect width="80" height="80" rx="40" fill="#FF7F00" fill-opacity="0.1"/>
<g clip-path="url(#clip0_95_586)">
<path d="M48.0501 46.0667C48.3019 45.9008 48.594 45.8064 48.8953 45.7935C49.1966 45.7805 49.4957 45.8496 49.7608 45.9933C50.026 46.137 50.2472 46.3499 50.4008 46.6093C50.5545 46.8688 50.6348 47.1651 50.6334 47.4667V49.6167C50.5707 50.7107 50.1949 51.7636 49.5507 52.65C48.9065 53.5365 48.0212 54.2191 47.0001 54.6167L41.6667 56.4333C40.5773 56.7437 39.4228 56.7437 38.3334 56.4333L33.0001 54.6667C31.9766 54.2727 31.089 53.5909 30.4443 52.7038C29.7996 51.8166 29.4254 50.7618 29.3667 49.6667V47.5C29.3653 47.1985 29.4456 46.9022 29.5993 46.6427C29.753 46.3832 29.9741 46.1703 30.2393 46.0266C30.5044 45.8829 30.8035 45.8139 31.1048 45.8268C31.4061 45.8397 31.6982 45.9341 31.9501 46.1L35.3834 48.3333C36.7693 49.2219 38.3874 49.6801 40.0334 49.65C41.6794 49.6801 43.2975 49.2219 44.6834 48.3333L48.0501 46.0667Z" fill="#FF7F00"/>
<path d="M53.3332 30.7667L43.3332 24.2167C42.3367 23.6354 41.2036 23.3291 40.0499 23.3291C38.8962 23.3291 37.7632 23.6354 36.7666 24.2167L26.6666 30.7667C25.9272 31.2501 25.32 31.91 24.8997 32.687C24.4794 33.4639 24.2593 34.3333 24.2593 35.2167C24.2593 36.1 24.4794 36.9694 24.8997 37.7464C25.32 38.5233 25.9272 39.1833 26.6666 39.6667L29.3332 41.3333L36.6999 46.1333C37.6965 46.7146 38.8295 47.0209 39.9832 47.0209C41.137 47.0209 42.27 46.7146 43.2666 46.1333L50.5832 41.3333L52.8666 39.8333V45C52.8666 45.3315 52.9983 45.6495 53.2327 45.8839C53.4671 46.1183 53.785 46.25 54.1166 46.25C54.4481 46.25 54.766 46.1183 55.0005 45.8839C55.2349 45.6495 55.3666 45.3315 55.3666 45V36.8C55.7269 35.7098 55.7235 34.5321 55.3568 33.444C54.9901 32.3559 54.28 31.4164 53.3332 30.7667Z" fill="#FF7F00"/>
</g>
<defs>
<clipPath id="clip0_95_586">
<rect width="40" height="40" fill="white" transform="translate(20 20)"/>
</clipPath>
</defs>
</svg>
