<svg width="72" height="72" viewBox="0 0 72 72" fill="none" xmlns="http://www.w3.org/2000/svg">
<rect width="72" height="72" rx="36" fill="white"/>
<g clip-path="url(#clip0_121_230)">
<path d="M45.3666 33.9167C45.0275 33.9124 44.7036 33.7758 44.4639 33.5361C44.2241 33.2963 44.0875 32.9724 44.0832 32.6334C43.8462 31.4822 43.2649 30.4302 42.4166 29.6167C41.6518 28.6813 40.5508 28.0829 39.3499 27.95C39.0029 27.9523 38.6692 27.8165 38.4223 27.5727C38.1754 27.3289 38.0354 26.997 38.0332 26.65C38.031 26.303 38.1667 25.9694 38.4105 25.7225C38.6543 25.4755 38.9862 25.3356 39.3332 25.3334C40.2956 25.3913 41.2358 25.646 42.0958 26.0818C42.9558 26.5175 43.7173 27.125 44.3332 27.8667C45.6431 29.1484 46.4678 30.8449 46.6666 32.6667C46.6536 33.0027 46.511 33.3207 46.2686 33.5538C46.0262 33.7869 45.7029 33.917 45.3666 33.9167Z" fill="#FF7F00"/>
<path d="M51.3831 33.9167C51.0428 33.9167 50.7164 33.7815 50.4757 33.5408C50.235 33.3002 50.0998 32.9737 50.0998 32.6334C50.0976 31.2217 49.8174 29.8242 49.2751 28.5208C48.7329 27.2174 47.9392 26.0335 46.9394 25.0369C45.9396 24.0402 44.7533 23.2502 43.4483 22.712C42.1432 22.1737 40.7448 21.8979 39.3331 21.9C38.9928 21.9 38.6664 21.7648 38.4257 21.5242C38.185 21.2835 38.0498 20.9571 38.0498 20.6167C38.0498 20.2763 38.185 19.9499 38.4257 19.7093C38.6664 19.4686 38.9928 19.3334 39.3331 19.3334C42.8694 19.3334 46.2607 20.7381 48.7612 23.2386C51.2617 25.7391 52.6665 29.1305 52.6665 32.6667C52.6537 32.9999 52.5133 33.3154 52.2745 33.5481C52.0356 33.7807 51.7165 33.9127 51.3831 33.9167Z" fill="#FF7F00"/>
<path d="M34.4165 40.9999L31.3332 43.9999C31.0216 44.3053 30.6028 44.4764 30.1665 44.4764C29.7303 44.4764 29.3114 44.3053 28.9999 43.9999L28.4499 43.4666C26.7645 41.77 25.21 39.9481 23.7999 38.0166C22.4815 36.2516 21.3635 34.3454 20.4665 32.3333C19.7308 30.6157 19.3455 28.7684 19.3332 26.8999C19.3259 25.7992 19.5296 24.7073 19.9332 23.6833C20.3571 22.6245 21.0119 21.6736 21.8499 20.8999C22.2935 20.4201 22.8289 20.0343 23.4244 19.7652C24.0198 19.496 24.6633 19.3492 25.3165 19.3333C25.7833 19.3315 26.2445 19.434 26.6665 19.6333C27.1167 19.837 27.5028 20.1597 27.7832 20.5666L31.6499 25.9999C31.9173 26.3612 32.1411 26.7528 32.3165 27.1666C32.4613 27.4865 32.5407 27.8322 32.5499 28.1833C32.5388 28.5911 32.4179 28.9884 32.1999 29.3333C31.9428 29.7675 31.6289 30.1655 31.2665 30.5166L29.9999 31.8333C29.912 31.9201 29.843 32.0242 29.7972 32.1389C29.7513 32.2536 29.7295 32.3765 29.7332 32.4999C29.717 32.6272 29.717 32.756 29.7332 32.8833L29.8665 33.2166C30.3141 33.9755 30.8331 34.6898 31.4165 35.3499C32.1665 36.2166 32.9665 37.0166 33.8332 37.9833L34.3499 38.4833C34.5342 38.6349 34.6839 38.8244 34.7887 39.0388C34.8935 39.2533 34.951 39.4878 34.9573 39.7264C34.9636 39.965 34.9186 40.2022 34.8253 40.4219C34.732 40.6417 34.5926 40.8388 34.4165 40.9999Z" fill="#FF7F00"/>
<path d="M52.6668 46.55C52.6649 47.033 52.5803 47.5122 52.4168 47.9667C52.3684 48.1029 52.3127 48.2364 52.2501 48.3667C51.9561 48.9748 51.5743 49.5364 51.1168 50.0333C50.3661 50.8872 49.4315 51.5596 48.3834 52C47.3671 52.4121 46.2801 52.6215 45.1834 52.6167C43.3087 52.5822 41.4605 52.1683 39.7501 51.4C37.7189 50.5097 35.7954 49.3914 34.0168 48.0667C33.3668 47.5833 32.7168 47.1 32.1001 46.5833L37.5501 41.1333C37.9396 41.4319 38.352 41.6994 38.7834 41.9333L39.0834 42.0667C39.2212 42.092 39.3624 42.092 39.5001 42.0667C39.6274 42.0695 39.754 42.0458 39.8716 41.997C39.9893 41.9482 40.0955 41.8754 40.1834 41.7833L41.4501 40.5333C41.8014 40.1642 42.2059 39.8496 42.6501 39.6C43.0035 39.3737 43.4138 39.2523 43.8334 39.25C44.1833 39.2548 44.5287 39.3285 44.8501 39.4667C45.2604 39.6424 45.6514 39.8602 46.0168 40.1167L51.5334 44.0333C51.9335 44.2952 52.2513 44.6651 52.4501 45.1C52.6264 45.562 52.7003 46.0567 52.6668 46.55Z" fill="#FF7F00"/>
</g>
<defs>
<clipPath id="clip0_121_230">
<rect width="40" height="40" fill="white" transform="translate(16 16)"/>
</clipPath>
</defs>
</svg>
