<svg width="80" height="80" viewBox="0 0 80 80" fill="none" xmlns="http://www.w3.org/2000/svg">
<rect width="80" height="80" rx="40" fill="#FF7F00" fill-opacity="0.1"/>
<g clip-path="url(#clip0_95_598)">
<path d="M54.9161 37.5435L46.5173 33.9466L44.7188 33.1553C44.5651 33.0711 44.4351 32.9495 44.3408 32.8017C44.2465 32.654 44.191 32.4849 44.1793 32.31V26.7888C44.1233 25.8532 43.836 24.9461 43.3432 24.1489C42.8504 23.3517 42.1675 22.6891 41.3557 22.2207C41.0782 22.0757 40.7697 22 40.4565 22C40.1434 22 39.8348 22.0757 39.5573 22.2207C38.7663 22.7072 38.1057 23.379 37.6326 24.178C37.1594 24.9771 36.8879 25.8793 36.8416 26.8067V32.31C36.8299 32.4849 36.7744 32.654 36.6801 32.8017C36.5858 32.9495 36.4558 33.0711 36.3021 33.1553L26.0509 37.5615C25.4577 37.8435 24.9529 38.2825 24.5915 38.831C24.2301 39.3794 24.0257 40.0164 24.0007 40.6728V43.0468C23.9923 43.3545 24.063 43.6593 24.2061 43.9319C24.3492 44.2045 24.5599 44.4358 24.8179 44.6036C25.076 44.7715 25.3729 44.8702 25.6801 44.8905C25.9873 44.9108 26.2946 44.8518 26.5725 44.7193L35.5647 40.8347C35.7019 40.7508 35.8601 40.7079 36.0208 40.7108C36.1815 40.7137 36.338 40.7624 36.4721 40.8511C36.6061 40.9398 36.7121 41.0649 36.7775 41.2117C36.843 41.3585 36.8652 41.5209 36.8416 41.6799V46.9134C36.8188 47.3915 36.635 47.8479 36.3201 48.2083L32.0757 52.3987C31.8523 52.6527 31.6958 52.9584 31.6204 53.2882C31.5451 53.6179 31.5532 53.9613 31.6441 54.2871L32.4534 56.733C32.5324 56.9803 32.664 57.2075 32.8392 57.3991C33.0143 57.5907 33.2289 57.7421 33.4681 57.843C33.7073 57.9438 33.9656 57.9916 34.225 57.9832C34.4845 57.9747 34.7391 57.9102 34.9712 57.7941L39.2515 54.1972C39.5785 53.9137 39.9968 53.7577 40.4295 53.7577C40.8623 53.7577 41.2805 53.9137 41.6075 54.1972L45.8878 57.7941C46.1215 57.9167 46.3794 57.9864 46.6431 57.9982C46.9068 58.01 47.1698 57.9636 47.4135 57.8624C47.6573 57.7611 47.8757 57.6074 48.0534 57.4122C48.2311 57.217 48.3636 56.9851 48.4416 56.733L49.2509 54.2871C49.3402 53.9611 49.3475 53.6182 49.2722 53.2887C49.1969 52.9592 49.0413 52.6535 48.8193 52.3987L44.6469 48.2083C44.3204 47.8536 44.1294 47.3951 44.1074 46.9134V41.6799C44.0838 41.5209 44.106 41.3585 44.1715 41.2117C44.2369 41.0649 44.3429 40.9398 44.4769 40.8511C44.6109 40.7624 44.7675 40.7137 44.9282 40.7108C45.0889 40.7079 45.2471 40.7508 45.3843 40.8347L54.3765 44.7193C54.6544 44.8518 54.9617 44.9108 55.2689 44.8905C55.5761 44.8702 55.8729 44.7715 56.131 44.6036C56.3891 44.4358 56.5998 44.2045 56.7429 43.9319C56.886 43.6593 56.9567 43.3545 56.9483 43.0468V40.6728C56.9167 40.018 56.7119 39.3834 56.3549 38.8336C55.9979 38.2839 55.5014 37.8387 54.9161 37.5435Z" fill="#FF7F00"/>
</g>
<defs>
<clipPath id="clip0_95_598">
<rect width="40" height="40" fill="white" transform="translate(20 20)"/>
</clipPath>
</defs>
</svg>
