<svg width="80" height="80" viewBox="0 0 80 80" fill="none" xmlns="http://www.w3.org/2000/svg">
<rect width="80" height="80" rx="40" fill="#FF7F00" fill-opacity="0.1"/>
<g clip-path="url(#clip0_95_574)">
<path d="M50.3809 28.3128V29.6433L44.0159 25.9574C42.7634 25.2759 41.3602 24.919 39.9343 24.919C38.5085 24.919 37.1053 25.2759 35.8528 25.9574L29.4878 29.6613V28.3128C29.387 27.466 29.4794 26.6074 29.758 25.8015C30.0365 24.9956 30.494 24.2632 31.0961 23.6594C31.6982 23.0555 32.4293 22.5959 33.2344 22.3151C34.0396 22.0342 34.8979 21.9393 35.7449 22.0376H44.1238C44.9708 21.9393 45.8291 22.0342 46.6342 22.3151C47.4394 22.5959 48.1704 23.0555 48.7725 23.6594C49.3746 24.2632 49.8321 24.9956 50.1107 25.8015C50.3893 26.6074 50.4816 27.466 50.3809 28.3128Z" fill="#FF7F00"/>
<path d="M50.4353 32.8258L50.1835 32.646L47.7382 31.2256L42.6678 28.2948C41.8339 27.8643 40.9091 27.6397 39.9707 27.6397C39.0323 27.6397 38.1075 27.8643 37.2737 28.2948L32.1313 31.2256L29.686 32.664L29.3623 32.8258C26.2158 34.9475 26 35.3431 26 38.7414V46.8685C26 50.2847 26.2158 50.6623 29.4342 52.8379L37.2017 57.315C38.0361 57.7809 38.9793 58.0166 39.9348 57.9983C40.8886 58.0221 41.8316 57.7926 42.6678 57.333L50.5072 52.802C53.6537 50.6803 53.8695 50.3027 53.8695 46.8864V38.7414C53.8695 35.3431 53.6537 34.9475 50.4353 32.8258ZM44.9513 42.715L43.8545 44.0456C43.6641 44.2857 43.5625 44.5842 43.5668 44.8906L43.6747 46.6887C43.717 46.9017 43.6971 47.1224 43.6175 47.3244C43.538 47.5265 43.4019 47.7015 43.2257 47.8284C43.0495 47.9554 42.8405 48.029 42.6236 48.0405C42.4068 48.052 42.1912 48.0009 42.0025 47.8933L40.4022 47.2101C40.0971 47.1202 39.7724 47.1202 39.4673 47.2101L37.867 47.8394C37.6783 47.947 37.4627 47.9981 37.2459 47.9865C37.029 47.975 36.82 47.9014 36.6438 47.7745C36.4676 47.6475 36.3315 47.4726 36.252 47.2705C36.1724 47.0684 36.1525 46.8477 36.1948 46.6347L36.3027 44.8367C36.307 44.5303 36.2054 44.2318 36.015 43.9916L34.9182 42.6611C34.7598 42.5112 34.6472 42.3194 34.5935 42.108C34.5399 41.8966 34.5474 41.6744 34.6153 41.4671C34.6831 41.2598 34.8084 41.0761 34.9767 40.9373C35.1449 40.7985 35.3491 40.7104 35.5655 40.6832L37.2377 40.2517C37.5321 40.1595 37.7859 39.9691 37.9569 39.7123L38.8919 38.2559C38.9845 38.0574 39.1318 37.8895 39.3165 37.7718C39.5013 37.6541 39.7157 37.5916 39.9348 37.5916C40.1538 37.5916 40.3682 37.6541 40.553 37.7718C40.7377 37.8895 40.885 38.0574 40.9776 38.2559L41.9126 39.7123C42.0836 39.9691 42.3374 40.1595 42.6318 40.2517L44.304 40.6832C44.5322 40.7009 44.7501 40.7863 44.9296 40.9284C45.109 41.0706 45.2421 41.2631 45.3116 41.4812C45.3811 41.6994 45.3839 41.9333 45.3197 42.1531C45.2555 42.3729 45.1272 42.5685 44.9513 42.715Z" fill="#FF7F00"/>
</g>
<defs>
<clipPath id="clip0_95_574">
<rect width="40" height="40" fill="white" transform="translate(20 20)"/>
</clipPath>
</defs>
</svg>
