<svg width="39" height="36" viewBox="0 0 39 36" fill="none" xmlns="http://www.w3.org/2000/svg">
    <path d="M19.166 8.39891C18.9 8.39877 18.6386 8.32902 18.4079 8.19661L6.17578 1.12651C6.58619 0.578642 7.18292 0.199929 7.85339 0.061835C8.52385 -0.0762594 9.22167 0.0358148 9.81518 0.37691L18.0778 5.1471C18.4094 5.33828 18.7854 5.43892 19.1681 5.43892C19.5509 5.43892 19.9269 5.33828 20.2585 5.1471L28.5211 0.37691C29.1155 0.0330384 29.8154 -0.0808024 30.4882 0.056966C31.1609 0.194734 31.7598 0.574537 32.1712 1.12438L19.9241 8.19661C19.6934 8.32912 19.4321 8.39887 19.166 8.39891V8.39891Z" fill="#FF9900"/>
    <path d="M1.2543 23.6529C0.885204 23.4361 0.578957 23.1269 0.365735 22.7557C0.152513 22.3845 0.039672 21.9642 0.0383301 21.5361V13.0541L6.40568 16.7766C6.77664 16.9945 7.08408 17.3057 7.29741 17.6793C7.51075 18.053 7.62253 18.4759 7.62165 18.9061V27.386L1.2543 23.6529Z" fill="#FF7F00"/>
    <path d="M30.7144 18.8955C30.7135 18.4653 30.8253 18.0423 31.0386 17.6687C31.2519 17.2951 31.5594 16.9838 31.9303 16.7659L38.2977 13.0435V21.5255C38.2963 21.9535 38.1835 22.3739 37.9703 22.745C37.7571 23.1162 37.4508 23.4254 37.0817 23.6422L30.7144 27.3647V18.8955Z" fill="#FF7F00"/>
    <path d="M10.6819 36L18.5804 28.11C18.7364 27.9545 18.9478 27.8672 19.1681 27.8672C19.3885 27.8672 19.5998 27.9545 19.7559 28.11L27.6544 35.9893H10.6819V36Z" fill="#FF9900"/>
    <path d="M10.6989 18.4845C10.6979 17.6922 10.4888 16.9141 10.0927 16.2279C9.69656 15.5418 9.12722 14.9717 8.44163 14.5746L3.64376 11.8062C2.02062 10.8693 0.821151 9.34268 0.294822 7.54395C-0.231508 5.74523 -0.0441773 3.81284 0.81785 2.14871L16.2336 11.0502C16.6632 11.2987 17.02 11.6558 17.2682 12.0856C17.5163 12.5154 17.6472 13.0029 17.6477 13.4992V23.2121C17.6483 23.4222 17.6073 23.6303 17.5269 23.8245C17.4464 24.0186 17.3282 24.1948 17.1792 24.3429L10.6989 30.8146V18.4845Z" fill="#FF9900"/>
    <path d="M21.157 24.3343C21.0079 24.1863 20.8897 24.0101 20.8093 23.8159C20.7289 23.6218 20.6878 23.4137 20.6885 23.2035V13.4992C20.6894 13.003 20.8204 12.5157 21.0685 12.0859C21.3167 11.6562 21.6732 11.2991 22.1025 11.0502L37.5183 2.14871C38.377 3.81314 38.5625 5.74411 38.0365 7.54159C37.5104 9.33907 36.313 10.8653 34.6924 11.8041L29.8945 14.5725C29.2089 14.9696 28.6396 15.5397 28.2435 16.2258C27.8473 16.9119 27.6383 17.6901 27.6372 18.4823V30.8124L21.157 24.3343Z" fill="#FF9900"/>
</svg>
